<svg width="32" height="32" viewBox="0 0 32 32" fill="none" xmlns="http://www.w3.org/2000/svg">
<path d="M28.4838 14.2856H5.34013L11.6715 7.75306C11.9023 7.47148 12.0222 7.11064 12.0073 6.74211C11.9925 6.37358 11.844 6.02427 11.5913 5.76346C11.3387 5.50264 11.0003 5.34937 10.6432 5.33404C10.2862 5.3187 9.93667 5.44243 9.66389 5.68068L0.913032 14.7153C0.648005 14.9908 0.499268 15.3633 0.499268 15.7515C0.499268 16.1398 0.648005 16.5123 0.913032 16.7877L9.66389 25.8209C9.93667 26.0591 10.2862 26.1829 10.6432 26.1675C11.0003 26.1522 11.3387 25.9989 11.5913 25.7381C11.844 25.4773 11.9925 25.128 12.0073 24.7594C12.0222 24.3909 11.9023 24.0301 11.6715 23.7485L5.34013 17.2174H28.4838C28.6798 17.2334 28.8768 17.2074 29.0625 17.141C29.2482 17.0746 29.4185 16.9692 29.5629 16.8315C29.7072 16.6938 29.8224 16.5268 29.9012 16.3409C29.9799 16.1551 30.0206 15.9544 30.0206 15.7515C30.0206 15.5487 29.9799 15.348 29.9012 15.1621C29.8224 14.9763 29.7072 14.8092 29.5629 14.6716C29.4185 14.5339 29.2482 14.4285 29.0625 14.3621C28.8768 14.2957 28.6798 14.2697 28.4838 14.2856Z" fill="#4A4A4A"/>
</svg>
